{
  "nbformat": 4,
  "nbformat_minor": 0,
  "metadata": {
    "colab": {
      "name": "2yr_superslowmo.ipynb",
      "provenance": [],
      "collapsed_sections": []
    },
    "kernelspec": {
      "name": "python3",
      "display_name": "Python 3"
    }
  },
  "cells": [
    {
      "cell_type": "code",
      "metadata": {
        "id": "d32VpnFkKhD3"
      },
      "source": [
        "import os\n",
        "from os.path import exists, join, basename, splitext, dirname\n",
        "\n",
        "git_repo_url = 'https://github.com/avinashpaliwal/Super-SloMo.git'\n",
        "project_name = splitext(basename(git_repo_url))[0]\n",
        "if not exists(project_name):\n",
        "  # clone and install dependencies\n",
        "  !git clone -q --depth 1 {git_repo_url}\n",
        "  !pip install -q youtube-dl\n",
        "  ffmpeg_path = !which ffmpeg\n",
        "  ffmpeg_path = dirname(ffmpeg_path[0])\n",
        "  \n",
        "import sys\n",
        "sys.path.append(project_name)\n",
        "from IPython.display import YouTubeVideo"
      ],
      "execution_count": null,
      "outputs": []
    },
    {
      "cell_type": "code",
      "metadata": {
        "id": "EEKhTEwMgSWL",
        "colab": {
          "base_uri": "https://localhost:8080/"
        },
        "outputId": "bfe9f841-5e03-4641-9e81-eedb45ebb8bf"
      },
      "source": [
        "!pip install tensorboardX"
      ],
      "execution_count": null,
      "outputs": [
        {
          "output_type": "stream",
          "text": [
            "Collecting tensorboardX\n",
            "\u001b[?25l  Downloading https://files.pythonhosted.org/packages/af/0c/4f41bcd45db376e6fe5c619c01100e9b7531c55791b7244815bac6eac32c/tensorboardX-2.1-py2.py3-none-any.whl (308kB)\n",
            "\u001b[K     |████████████████████████████████| 317kB 5.5MB/s \n",
            "\u001b[?25hRequirement already satisfied: six in /usr/local/lib/python3.6/dist-packages (from tensorboardX) (1.15.0)\n",
            "Requirement already satisfied: numpy in /usr/local/lib/python3.6/dist-packages (from tensorboardX) (1.18.5)\n",
            "Requirement already satisfied: protobuf>=3.8.0 in /usr/local/lib/python3.6/dist-packages (from tensorboardX) (3.12.4)\n",
            "Requirement already satisfied: setuptools in /usr/local/lib/python3.6/dist-packages (from protobuf>=3.8.0->tensorboardX) (50.3.2)\n",
            "Installing collected packages: tensorboardX\n",
            "Successfully installed tensorboardX-2.1\n"
          ],
          "name": "stdout"
        }
      ]
    },
    {
      "cell_type": "code",
      "metadata": {
        "id": "lAhMlG90NtK6",
        "colab": {
          "base_uri": "https://localhost:8080/"
        },
        "outputId": "966c6bf9-b608-44ce-e210-3223c16f4cb1"
      },
      "source": [
        "'''Download pretrained video'''\n",
        "def download_from_google_drive(file_id, file_name):\n",
        "  # download a file from the Google Drive link\n",
        "  !rm -f ./cookie\n",
        "  !curl -c ./cookie -s -L \"https://drive.google.com/uc?export=download&id={file_id}\" > /dev/null\n",
        "  confirm_text = !awk '/download/ {print $NF}' ./cookie\n",
        "  confirm_text = confirm_text[0]\n",
        "  !curl -Lb ./cookie \"https://drive.google.com/uc?export=download&confirm={confirm_text}&id={file_id}\" -o {file_name}\n",
        "  \n",
        "pretrained_model = 'SuperSloMo.ckpt'\n",
        "if not exists(pretrained_model):\n",
        "  download_from_google_drive('1IvobLDbRiBgZr3ryCRrWL8xDbMZ-KnpF', pretrained_model)"
      ],
      "execution_count": null,
      "outputs": [
        {
          "output_type": "stream",
          "text": [
            "  % Total    % Received % Xferd  Average Speed   Time    Time     Time  Current\n",
            "                                 Dload  Upload   Total   Spent    Left  Speed\n",
            "100   408    0   408    0     0   1672      0 --:--:-- --:--:-- --:--:--  1665\n",
            "  0     0    0     0    0     0      0      0 --:--:-- --:--:-- --:--:--     0\n",
            "  0     0    0     0    0     0      0      0 --:--:-- --:--:-- --:--:--     0\n",
            "100  151M    0  151M    0     0  69.5M      0 --:--:--  0:00:02 --:--:--  125M\n"
          ],
          "name": "stdout"
        }
      ]
    },
    {
      "cell_type": "code",
      "metadata": {
        "colab": {
          "base_uri": "https://localhost:8080/"
        },
        "id": "HloKZQPK6iPV",
        "outputId": "7cc49580-46fc-4055-8923-3a2d98502ea7"
      },
      "source": [
        "!cd {project_name} && python data/create_dataset.py --ffmpeg_dir {ffmpeg_path} --videos_folder data/1979_train --dataset_folder data/train --img_width 1152 --img_height 768"
      ],
      "execution_count": null,
      "outputs": [
        {
          "output_type": "stream",
          "text": [
            "ffmpeg version 3.4.8-0ubuntu0.2 Copyright (c) 2000-2020 the FFmpeg developers\n",
            "  built with gcc 7 (Ubuntu 7.5.0-3ubuntu1~18.04)\n",
            "  configuration: --prefix=/usr --extra-version=0ubuntu0.2 --toolchain=hardened --libdir=/usr/lib/x86_64-linux-gnu --incdir=/usr/include/x86_64-linux-gnu --enable-gpl --disable-stripping --enable-avresample --enable-avisynth --enable-gnutls --enable-ladspa --enable-libass --enable-libbluray --enable-libbs2b --enable-libcaca --enable-libcdio --enable-libflite --enable-libfontconfig --enable-libfreetype --enable-libfribidi --enable-libgme --enable-libgsm --enable-libmp3lame --enable-libmysofa --enable-libopenjpeg --enable-libopenmpt --enable-libopus --enable-libpulse --enable-librubberband --enable-librsvg --enable-libshine --enable-libsnappy --enable-libsoxr --enable-libspeex --enable-libssh --enable-libtheora --enable-libtwolame --enable-libvorbis --enable-libvpx --enable-libwavpack --enable-libwebp --enable-libx265 --enable-libxml2 --enable-libxvid --enable-libzmq --enable-libzvbi --enable-omx --enable-openal --enable-opengl --enable-sdl2 --enable-libdc1394 --enable-libdrm --enable-libiec61883 --enable-chromaprint --enable-frei0r --enable-libopencv --enable-libx264 --enable-shared\n",
            "  libavutil      55. 78.100 / 55. 78.100\n",
            "  libavcodec     57.107.100 / 57.107.100\n",
            "  libavformat    57. 83.100 / 57. 83.100\n",
            "  libavdevice    57. 10.100 / 57. 10.100\n",
            "  libavfilter     6.107.100 /  6.107.100\n",
            "  libavresample   3.  7.  0 /  3.  7.  0\n",
            "  libswscale      4.  8.100 /  4.  8.100\n",
            "  libswresample   2.  9.100 /  2.  9.100\n",
            "  libpostproc    54.  7.100 / 54.  7.100\n",
            "Input #0, mov,mp4,m4a,3gp,3g2,mj2, from 'data/1979_train/1979_5.mov':\n",
            "  Metadata:\n",
            "    major_brand     : qt  \n",
            "    minor_version   : 512\n",
            "    compatible_brands: qt  \n",
            "    encoder         : Lavf58.60.100\n",
            "  Duration: 00:00:05.00, start: 0.000000, bitrate: 33392 kb/s\n",
            "    Stream #0:0: Video: ffvhuff (FFVH / 0x48564646), gray(progressive), 1152x768, 33390 kb/s, 16 fps, 16 tbr, 16384 tbn, 16384 tbc (default)\n",
            "    Metadata:\n",
            "      handler_name    : DataHandler\n",
            "      encoder         : Lavc58.108.100 ffvhuff\n",
            "Stream mapping:\n",
            "  Stream #0:0 -> #0:0 (ffvhuff (native) -> mjpeg (native))\n",
            "Press [q] to stop, [?] for help\n",
            "\u001b[1;34m[swscaler @ 0x55aa7880a000] \u001b[0m\u001b[0;33mdeprecated pixel format used, make sure you did set range correctly\n",
            "\u001b[0mOutput #0, image2, to 'data/train/extracted/1979_5/%04d.jpg':\n",
            "  Metadata:\n",
            "    major_brand     : qt  \n",
            "    minor_version   : 512\n",
            "    compatible_brands: qt  \n",
            "    encoder         : Lavf57.83.100\n",
            "    Stream #0:0: Video: mjpeg, yuvj444p(pc), 1152x768, q=2-31, 200 kb/s, 16 fps, 16 tbn, 16 tbc (default)\n",
            "    Metadata:\n",
            "      handler_name    : DataHandler\n",
            "      encoder         : Lavc57.107.100 mjpeg\n",
            "    Side data:\n",
            "      cpb: bitrate max/min/avg: 0/0/200000 buffer size: 0 vbv_delay: -1\n",
            "frame=   80 fps=0.0 q=2.0 Lsize=N/A time=00:00:05.00 bitrate=N/A speed=6.16x    \n",
            "video:3634kB audio:0kB subtitle:0kB other streams:0kB global headers:0kB muxing overhead: unknown\n",
            "ffmpeg version 3.4.8-0ubuntu0.2 Copyright (c) 2000-2020 the FFmpeg developers\n",
            "  built with gcc 7 (Ubuntu 7.5.0-3ubuntu1~18.04)\n",
            "  configuration: --prefix=/usr --extra-version=0ubuntu0.2 --toolchain=hardened --libdir=/usr/lib/x86_64-linux-gnu --incdir=/usr/include/x86_64-linux-gnu --enable-gpl --disable-stripping --enable-avresample --enable-avisynth --enable-gnutls --enable-ladspa --enable-libass --enable-libbluray --enable-libbs2b --enable-libcaca --enable-libcdio --enable-libflite --enable-libfontconfig --enable-libfreetype --enable-libfribidi --enable-libgme --enable-libgsm --enable-libmp3lame --enable-libmysofa --enable-libopenjpeg --enable-libopenmpt --enable-libopus --enable-libpulse --enable-librubberband --enable-librsvg --enable-libshine --enable-libsnappy --enable-libsoxr --enable-libspeex --enable-libssh --enable-libtheora --enable-libtwolame --enable-libvorbis --enable-libvpx --enable-libwavpack --enable-libwebp --enable-libx265 --enable-libxml2 --enable-libxvid --enable-libzmq --enable-libzvbi --enable-omx --enable-openal --enable-opengl --enable-sdl2 --enable-libdc1394 --enable-libdrm --enable-libiec61883 --enable-chromaprint --enable-frei0r --enable-libopencv --enable-libx264 --enable-shared\n",
            "  libavutil      55. 78.100 / 55. 78.100\n",
            "  libavcodec     57.107.100 / 57.107.100\n",
            "  libavformat    57. 83.100 / 57. 83.100\n",
            "  libavdevice    57. 10.100 / 57. 10.100\n",
            "  libavfilter     6.107.100 /  6.107.100\n",
            "  libavresample   3.  7.  0 /  3.  7.  0\n",
            "  libswscale      4.  8.100 /  4.  8.100\n",
            "  libswresample   2.  9.100 /  2.  9.100\n",
            "  libpostproc    54.  7.100 / 54.  7.100\n",
            "Input #0, mov,mp4,m4a,3gp,3g2,mj2, from 'data/1979_train/1979_19.mov':\n",
            "  Metadata:\n",
            "    major_brand     : qt  \n",
            "    minor_version   : 512\n",
            "    compatible_brands: qt  \n",
            "    encoder         : Lavf58.60.100\n",
            "  Duration: 00:00:01.25, start: 0.000000, bitrate: 32774 kb/s\n",
            "    Stream #0:0: Video: ffvhuff (FFVH / 0x48564646), gray(progressive), 1152x768, 32769 kb/s, 16 fps, 16 tbr, 16384 tbn, 16384 tbc (default)\n",
            "    Metadata:\n",
            "      handler_name    : DataHandler\n",
            "      encoder         : Lavc58.108.100 ffvhuff\n",
            "Stream mapping:\n",
            "  Stream #0:0 -> #0:0 (ffvhuff (native) -> mjpeg (native))\n",
            "Press [q] to stop, [?] for help\n",
            "\u001b[1;34m[swscaler @ 0x557743028000] \u001b[0m\u001b[0;33mdeprecated pixel format used, make sure you did set range correctly\n",
            "\u001b[0mOutput #0, image2, to 'data/train/extracted/1979_19/%04d.jpg':\n",
            "  Metadata:\n",
            "    major_brand     : qt  \n",
            "    minor_version   : 512\n",
            "    compatible_brands: qt  \n",
            "    encoder         : Lavf57.83.100\n",
            "    Stream #0:0: Video: mjpeg, yuvj444p(pc), 1152x768, q=2-31, 200 kb/s, 16 fps, 16 tbn, 16 tbc (default)\n",
            "    Metadata:\n",
            "      handler_name    : DataHandler\n",
            "      encoder         : Lavc57.107.100 mjpeg\n",
            "    Side data:\n",
            "      cpb: bitrate max/min/avg: 0/0/200000 buffer size: 0 vbv_delay: -1\n",
            "frame=   20 fps=0.0 q=2.0 Lsize=N/A time=00:00:01.25 bitrate=N/A speed=6.36x    \n",
            "video:807kB audio:0kB subtitle:0kB other streams:0kB global headers:0kB muxing overhead: unknown\n",
            "ffmpeg version 3.4.8-0ubuntu0.2 Copyright (c) 2000-2020 the FFmpeg developers\n",
            "  built with gcc 7 (Ubuntu 7.5.0-3ubuntu1~18.04)\n",
            "  configuration: --prefix=/usr --extra-version=0ubuntu0.2 --toolchain=hardened --libdir=/usr/lib/x86_64-linux-gnu --incdir=/usr/include/x86_64-linux-gnu --enable-gpl --disable-stripping --enable-avresample --enable-avisynth --enable-gnutls --enable-ladspa --enable-libass --enable-libbluray --enable-libbs2b --enable-libcaca --enable-libcdio --enable-libflite --enable-libfontconfig --enable-libfreetype --enable-libfribidi --enable-libgme --enable-libgsm --enable-libmp3lame --enable-libmysofa --enable-libopenjpeg --enable-libopenmpt --enable-libopus --enable-libpulse --enable-librubberband --enable-librsvg --enable-libshine --enable-libsnappy --enable-libsoxr --enable-libspeex --enable-libssh --enable-libtheora --enable-libtwolame --enable-libvorbis --enable-libvpx --enable-libwavpack --enable-libwebp --enable-libx265 --enable-libxml2 --enable-libxvid --enable-libzmq --enable-libzvbi --enable-omx --enable-openal --enable-opengl --enable-sdl2 --enable-libdc1394 --enable-libdrm --enable-libiec61883 --enable-chromaprint --enable-frei0r --enable-libopencv --enable-libx264 --enable-shared\n",
            "  libavutil      55. 78.100 / 55. 78.100\n",
            "  libavcodec     57.107.100 / 57.107.100\n",
            "  libavformat    57. 83.100 / 57. 83.100\n",
            "  libavdevice    57. 10.100 / 57. 10.100\n",
            "  libavfilter     6.107.100 /  6.107.100\n",
            "  libavresample   3.  7.  0 /  3.  7.  0\n",
            "  libswscale      4.  8.100 /  4.  8.100\n",
            "  libswresample   2.  9.100 /  2.  9.100\n",
            "  libpostproc    54.  7.100 / 54.  7.100\n",
            "Input #0, mov,mp4,m4a,3gp,3g2,mj2, from 'data/1979_train/1979_15.mov':\n",
            "  Metadata:\n",
            "    major_brand     : qt  \n",
            "    minor_version   : 512\n",
            "    compatible_brands: qt  \n",
            "    encoder         : Lavf58.60.100\n",
            "  Duration: 00:00:05.00, start: 0.000000, bitrate: 32769 kb/s\n",
            "    Stream #0:0: Video: ffvhuff (FFVH / 0x48564646), gray(progressive), 1152x768, 32767 kb/s, 16 fps, 16 tbr, 16384 tbn, 16384 tbc (default)\n",
            "    Metadata:\n",
            "      handler_name    : DataHandler\n",
            "      encoder         : Lavc58.108.100 ffvhuff\n",
            "Stream mapping:\n",
            "  Stream #0:0 -> #0:0 (ffvhuff (native) -> mjpeg (native))\n",
            "Press [q] to stop, [?] for help\n",
            "\u001b[1;34m[swscaler @ 0x5632bc22c000] \u001b[0m\u001b[0;33mdeprecated pixel format used, make sure you did set range correctly\n",
            "\u001b[0mOutput #0, image2, to 'data/train/extracted/1979_15/%04d.jpg':\n",
            "  Metadata:\n",
            "    major_brand     : qt  \n",
            "    minor_version   : 512\n",
            "    compatible_brands: qt  \n",
            "    encoder         : Lavf57.83.100\n",
            "    Stream #0:0: Video: mjpeg, yuvj444p(pc), 1152x768, q=2-31, 200 kb/s, 16 fps, 16 tbn, 16 tbc (default)\n",
            "    Metadata:\n",
            "      handler_name    : DataHandler\n",
            "      encoder         : Lavc57.107.100 mjpeg\n",
            "    Side data:\n",
            "      cpb: bitrate max/min/avg: 0/0/200000 buffer size: 0 vbv_delay: -1\n",
            "frame=   80 fps=0.0 q=2.0 Lsize=N/A time=00:00:05.00 bitrate=N/A speed=7.18x    \n",
            "video:3329kB audio:0kB subtitle:0kB other streams:0kB global headers:0kB muxing overhead: unknown\n",
            "ffmpeg version 3.4.8-0ubuntu0.2 Copyright (c) 2000-2020 the FFmpeg developers\n",
            "  built with gcc 7 (Ubuntu 7.5.0-3ubuntu1~18.04)\n",
            "  configuration: --prefix=/usr --extra-version=0ubuntu0.2 --toolchain=hardened --libdir=/usr/lib/x86_64-linux-gnu --incdir=/usr/include/x86_64-linux-gnu --enable-gpl --disable-stripping --enable-avresample --enable-avisynth --enable-gnutls --enable-ladspa --enable-libass --enable-libbluray --enable-libbs2b --enable-libcaca --enable-libcdio --enable-libflite --enable-libfontconfig --enable-libfreetype --enable-libfribidi --enable-libgme --enable-libgsm --enable-libmp3lame --enable-libmysofa --enable-libopenjpeg --enable-libopenmpt --enable-libopus --enable-libpulse --enable-librubberband --enable-librsvg --enable-libshine --enable-libsnappy --enable-libsoxr --enable-libspeex --enable-libssh --enable-libtheora --enable-libtwolame --enable-libvorbis --enable-libvpx --enable-libwavpack --enable-libwebp --enable-libx265 --enable-libxml2 --enable-libxvid --enable-libzmq --enable-libzvbi --enable-omx --enable-openal --enable-opengl --enable-sdl2 --enable-libdc1394 --enable-libdrm --enable-libiec61883 --enable-chromaprint --enable-frei0r --enable-libopencv --enable-libx264 --enable-shared\n",
            "  libavutil      55. 78.100 / 55. 78.100\n",
            "  libavcodec     57.107.100 / 57.107.100\n",
            "  libavformat    57. 83.100 / 57. 83.100\n",
            "  libavdevice    57. 10.100 / 57. 10.100\n",
            "  libavfilter     6.107.100 /  6.107.100\n",
            "  libavresample   3.  7.  0 /  3.  7.  0\n",
            "  libswscale      4.  8.100 /  4.  8.100\n",
            "  libswresample   2.  9.100 /  2.  9.100\n",
            "  libpostproc    54.  7.100 / 54.  7.100\n",
            "Input #0, mov,mp4,m4a,3gp,3g2,mj2, from 'data/1979_train/1979_17.mov':\n",
            "  Metadata:\n",
            "    major_brand     : qt  \n",
            "    minor_version   : 512\n",
            "    compatible_brands: qt  \n",
            "    encoder         : Lavf58.60.100\n",
            "  Duration: 00:00:05.00, start: 0.000000, bitrate: 32563 kb/s\n",
            "    Stream #0:0: Video: ffvhuff (FFVH / 0x48564646), gray(progressive), 1152x768, 32561 kb/s, 16 fps, 16 tbr, 16384 tbn, 16384 tbc (default)\n",
            "    Metadata:\n",
            "      handler_name    : DataHandler\n",
            "      encoder         : Lavc58.108.100 ffvhuff\n",
            "Stream mapping:\n",
            "  Stream #0:0 -> #0:0 (ffvhuff (native) -> mjpeg (native))\n",
            "Press [q] to stop, [?] for help\n",
            "\u001b[1;34m[swscaler @ 0x55f4de938000] \u001b[0m\u001b[0;33mdeprecated pixel format used, make sure you did set range correctly\n",
            "\u001b[0mOutput #0, image2, to 'data/train/extracted/1979_17/%04d.jpg':\n",
            "  Metadata:\n",
            "    major_brand     : qt  \n",
            "    minor_version   : 512\n",
            "    compatible_brands: qt  \n",
            "    encoder         : Lavf57.83.100\n",
            "    Stream #0:0: Video: mjpeg, yuvj444p(pc), 1152x768, q=2-31, 200 kb/s, 16 fps, 16 tbn, 16 tbc (default)\n",
            "    Metadata:\n",
            "      handler_name    : DataHandler\n",
            "      encoder         : Lavc57.107.100 mjpeg\n",
            "    Side data:\n",
            "      cpb: bitrate max/min/avg: 0/0/200000 buffer size: 0 vbv_delay: -1\n",
            "frame=   80 fps=0.0 q=2.0 Lsize=N/A time=00:00:05.00 bitrate=N/A speed= 7.2x    \n",
            "video:3136kB audio:0kB subtitle:0kB other streams:0kB global headers:0kB muxing overhead: unknown\n",
            "ffmpeg version 3.4.8-0ubuntu0.2 Copyright (c) 2000-2020 the FFmpeg developers\n",
            "  built with gcc 7 (Ubuntu 7.5.0-3ubuntu1~18.04)\n",
            "  configuration: --prefix=/usr --extra-version=0ubuntu0.2 --toolchain=hardened --libdir=/usr/lib/x86_64-linux-gnu --incdir=/usr/include/x86_64-linux-gnu --enable-gpl --disable-stripping --enable-avresample --enable-avisynth --enable-gnutls --enable-ladspa --enable-libass --enable-libbluray --enable-libbs2b --enable-libcaca --enable-libcdio --enable-libflite --enable-libfontconfig --enable-libfreetype --enable-libfribidi --enable-libgme --enable-libgsm --enable-libmp3lame --enable-libmysofa --enable-libopenjpeg --enable-libopenmpt --enable-libopus --enable-libpulse --enable-librubberband --enable-librsvg --enable-libshine --enable-libsnappy --enable-libsoxr --enable-libspeex --enable-libssh --enable-libtheora --enable-libtwolame --enable-libvorbis --enable-libvpx --enable-libwavpack --enable-libwebp --enable-libx265 --enable-libxml2 --enable-libxvid --enable-libzmq --enable-libzvbi --enable-omx --enable-openal --enable-opengl --enable-sdl2 --enable-libdc1394 --enable-libdrm --enable-libiec61883 --enable-chromaprint --enable-frei0r --enable-libopencv --enable-libx264 --enable-shared\n",
            "  libavutil      55. 78.100 / 55. 78.100\n",
            "  libavcodec     57.107.100 / 57.107.100\n",
            "  libavformat    57. 83.100 / 57. 83.100\n",
            "  libavdevice    57. 10.100 / 57. 10.100\n",
            "  libavfilter     6.107.100 /  6.107.100\n",
            "  libavresample   3.  7.  0 /  3.  7.  0\n",
            "  libswscale      4.  8.100 /  4.  8.100\n",
            "  libswresample   2.  9.100 /  2.  9.100\n",
            "  libpostproc    54.  7.100 / 54.  7.100\n",
            "Input #0, mov,mp4,m4a,3gp,3g2,mj2, from 'data/1979_train/1979_4.mov':\n",
            "  Metadata:\n",
            "    major_brand     : qt  \n",
            "    minor_version   : 512\n",
            "    compatible_brands: qt  \n",
            "    encoder         : Lavf58.60.100\n",
            "  Duration: 00:00:05.00, start: 0.000000, bitrate: 33462 kb/s\n",
            "    Stream #0:0: Video: ffvhuff (FFVH / 0x48564646), gray(progressive), 1152x768, 33460 kb/s, 16 fps, 16 tbr, 16384 tbn, 16384 tbc (default)\n",
            "    Metadata:\n",
            "      handler_name    : DataHandler\n",
            "      encoder         : Lavc58.108.100 ffvhuff\n",
            "Stream mapping:\n",
            "  Stream #0:0 -> #0:0 (ffvhuff (native) -> mjpeg (native))\n",
            "Press [q] to stop, [?] for help\n",
            "\u001b[1;34m[swscaler @ 0x55eec3f18000] \u001b[0m\u001b[0;33mdeprecated pixel format used, make sure you did set range correctly\n",
            "\u001b[0mOutput #0, image2, to 'data/train/extracted/1979_4/%04d.jpg':\n",
            "  Metadata:\n",
            "    major_brand     : qt  \n",
            "    minor_version   : 512\n",
            "    compatible_brands: qt  \n",
            "    encoder         : Lavf57.83.100\n",
            "    Stream #0:0: Video: mjpeg, yuvj444p(pc), 1152x768, q=2-31, 200 kb/s, 16 fps, 16 tbn, 16 tbc (default)\n",
            "    Metadata:\n",
            "      handler_name    : DataHandler\n",
            "      encoder         : Lavc57.107.100 mjpeg\n",
            "    Side data:\n",
            "      cpb: bitrate max/min/avg: 0/0/200000 buffer size: 0 vbv_delay: -1\n",
            "frame=   80 fps=0.0 q=2.0 Lsize=N/A time=00:00:05.00 bitrate=N/A speed=6.78x    \n",
            "video:3574kB audio:0kB subtitle:0kB other streams:0kB global headers:0kB muxing overhead: unknown\n",
            "ffmpeg version 3.4.8-0ubuntu0.2 Copyright (c) 2000-2020 the FFmpeg developers\n",
            "  built with gcc 7 (Ubuntu 7.5.0-3ubuntu1~18.04)\n",
            "  configuration: --prefix=/usr --extra-version=0ubuntu0.2 --toolchain=hardened --libdir=/usr/lib/x86_64-linux-gnu --incdir=/usr/include/x86_64-linux-gnu --enable-gpl --disable-stripping --enable-avresample --enable-avisynth --enable-gnutls --enable-ladspa --enable-libass --enable-libbluray --enable-libbs2b --enable-libcaca --enable-libcdio --enable-libflite --enable-libfontconfig --enable-libfreetype --enable-libfribidi --enable-libgme --enable-libgsm --enable-libmp3lame --enable-libmysofa --enable-libopenjpeg --enable-libopenmpt --enable-libopus --enable-libpulse --enable-librubberband --enable-librsvg --enable-libshine --enable-libsnappy --enable-libsoxr --enable-libspeex --enable-libssh --enable-libtheora --enable-libtwolame --enable-libvorbis --enable-libvpx --enable-libwavpack --enable-libwebp --enable-libx265 --enable-libxml2 --enable-libxvid --enable-libzmq --enable-libzvbi --enable-omx --enable-openal --enable-opengl --enable-sdl2 --enable-libdc1394 --enable-libdrm --enable-libiec61883 --enable-chromaprint --enable-frei0r --enable-libopencv --enable-libx264 --enable-shared\n",
            "  libavutil      55. 78.100 / 55. 78.100\n",
            "  libavcodec     57.107.100 / 57.107.100\n",
            "  libavformat    57. 83.100 / 57. 83.100\n",
            "  libavdevice    57. 10.100 / 57. 10.100\n",
            "  libavfilter     6.107.100 /  6.107.100\n",
            "  libavresample   3.  7.  0 /  3.  7.  0\n",
            "  libswscale      4.  8.100 /  4.  8.100\n",
            "  libswresample   2.  9.100 /  2.  9.100\n",
            "  libpostproc    54.  7.100 / 54.  7.100\n",
            "Input #0, mov,mp4,m4a,3gp,3g2,mj2, from 'data/1979_train/1979_7.mov':\n",
            "  Metadata:\n",
            "    major_brand     : qt  \n",
            "    minor_version   : 512\n",
            "    compatible_brands: qt  \n",
            "    encoder         : Lavf58.60.100\n",
            "  Duration: 00:00:05.00, start: 0.000000, bitrate: 33202 kb/s\n",
            "    Stream #0:0: Video: ffvhuff (FFVH / 0x48564646), gray(progressive), 1152x768, 33200 kb/s, 16 fps, 16 tbr, 16384 tbn, 16384 tbc (default)\n",
            "    Metadata:\n",
            "      handler_name    : DataHandler\n",
            "      encoder         : Lavc58.108.100 ffvhuff\n",
            "Stream mapping:\n",
            "  Stream #0:0 -> #0:0 (ffvhuff (native) -> mjpeg (native))\n",
            "Press [q] to stop, [?] for help\n",
            "\u001b[1;34m[swscaler @ 0x5638a8822000] \u001b[0m\u001b[0;33mdeprecated pixel format used, make sure you did set range correctly\n",
            "\u001b[0mOutput #0, image2, to 'data/train/extracted/1979_7/%04d.jpg':\n",
            "  Metadata:\n",
            "    major_brand     : qt  \n",
            "    minor_version   : 512\n",
            "    compatible_brands: qt  \n",
            "    encoder         : Lavf57.83.100\n",
            "    Stream #0:0: Video: mjpeg, yuvj444p(pc), 1152x768, q=2-31, 200 kb/s, 16 fps, 16 tbn, 16 tbc (default)\n",
            "    Metadata:\n",
            "      handler_name    : DataHandler\n",
            "      encoder         : Lavc57.107.100 mjpeg\n",
            "    Side data:\n",
            "      cpb: bitrate max/min/avg: 0/0/200000 buffer size: 0 vbv_delay: -1\n",
            "frame=   80 fps=0.0 q=2.0 Lsize=N/A time=00:00:05.00 bitrate=N/A speed=7.05x    \n",
            "video:3536kB audio:0kB subtitle:0kB other streams:0kB global headers:0kB muxing overhead: unknown\n",
            "ffmpeg version 3.4.8-0ubuntu0.2 Copyright (c) 2000-2020 the FFmpeg developers\n",
            "  built with gcc 7 (Ubuntu 7.5.0-3ubuntu1~18.04)\n",
            "  configuration: --prefix=/usr --extra-version=0ubuntu0.2 --toolchain=hardened --libdir=/usr/lib/x86_64-linux-gnu --incdir=/usr/include/x86_64-linux-gnu --enable-gpl --disable-stripping --enable-avresample --enable-avisynth --enable-gnutls --enable-ladspa --enable-libass --enable-libbluray --enable-libbs2b --enable-libcaca --enable-libcdio --enable-libflite --enable-libfontconfig --enable-libfreetype --enable-libfribidi --enable-libgme --enable-libgsm --enable-libmp3lame --enable-libmysofa --enable-libopenjpeg --enable-libopenmpt --enable-libopus --enable-libpulse --enable-librubberband --enable-librsvg --enable-libshine --enable-libsnappy --enable-libsoxr --enable-libspeex --enable-libssh --enable-libtheora --enable-libtwolame --enable-libvorbis --enable-libvpx --enable-libwavpack --enable-libwebp --enable-libx265 --enable-libxml2 --enable-libxvid --enable-libzmq --enable-libzvbi --enable-omx --enable-openal --enable-opengl --enable-sdl2 --enable-libdc1394 --enable-libdrm --enable-libiec61883 --enable-chromaprint --enable-frei0r --enable-libopencv --enable-libx264 --enable-shared\n",
            "  libavutil      55. 78.100 / 55. 78.100\n",
            "  libavcodec     57.107.100 / 57.107.100\n",
            "  libavformat    57. 83.100 / 57. 83.100\n",
            "  libavdevice    57. 10.100 / 57. 10.100\n",
            "  libavfilter     6.107.100 /  6.107.100\n",
            "  libavresample   3.  7.  0 /  3.  7.  0\n",
            "  libswscale      4.  8.100 /  4.  8.100\n",
            "  libswresample   2.  9.100 /  2.  9.100\n",
            "  libpostproc    54.  7.100 / 54.  7.100\n",
            "Input #0, mov,mp4,m4a,3gp,3g2,mj2, from 'data/1979_train/1979_10.mov':\n",
            "  Metadata:\n",
            "    major_brand     : qt  \n",
            "    minor_version   : 512\n",
            "    compatible_brands: qt  \n",
            "    encoder         : Lavf58.60.100\n",
            "  Duration: 00:00:05.00, start: 0.000000, bitrate: 32935 kb/s\n",
            "    Stream #0:0: Video: ffvhuff (FFVH / 0x48564646), gray(progressive), 1152x768, 32933 kb/s, 16 fps, 16 tbr, 16384 tbn, 16384 tbc (default)\n",
            "    Metadata:\n",
            "      handler_name    : DataHandler\n",
            "      encoder         : Lavc58.108.100 ffvhuff\n",
            "Stream mapping:\n",
            "  Stream #0:0 -> #0:0 (ffvhuff (native) -> mjpeg (native))\n",
            "Press [q] to stop, [?] for help\n",
            "\u001b[1;34m[swscaler @ 0x556b2e146000] \u001b[0m\u001b[0;33mdeprecated pixel format used, make sure you did set range correctly\n",
            "\u001b[0mOutput #0, image2, to 'data/train/extracted/1979_10/%04d.jpg':\n",
            "  Metadata:\n",
            "    major_brand     : qt  \n",
            "    minor_version   : 512\n",
            "    compatible_brands: qt  \n",
            "    encoder         : Lavf57.83.100\n",
            "    Stream #0:0: Video: mjpeg, yuvj444p(pc), 1152x768, q=2-31, 200 kb/s, 16 fps, 16 tbn, 16 tbc (default)\n",
            "    Metadata:\n",
            "      handler_name    : DataHandler\n",
            "      encoder         : Lavc57.107.100 mjpeg\n",
            "    Side data:\n",
            "      cpb: bitrate max/min/avg: 0/0/200000 buffer size: 0 vbv_delay: -1\n",
            "frame=   80 fps=0.0 q=2.0 Lsize=N/A time=00:00:05.00 bitrate=N/A speed= 7.1x    \n",
            "video:3480kB audio:0kB subtitle:0kB other streams:0kB global headers:0kB muxing overhead: unknown\n",
            "ffmpeg version 3.4.8-0ubuntu0.2 Copyright (c) 2000-2020 the FFmpeg developers\n",
            "  built with gcc 7 (Ubuntu 7.5.0-3ubuntu1~18.04)\n",
            "  configuration: --prefix=/usr --extra-version=0ubuntu0.2 --toolchain=hardened --libdir=/usr/lib/x86_64-linux-gnu --incdir=/usr/include/x86_64-linux-gnu --enable-gpl --disable-stripping --enable-avresample --enable-avisynth --enable-gnutls --enable-ladspa --enable-libass --enable-libbluray --enable-libbs2b --enable-libcaca --enable-libcdio --enable-libflite --enable-libfontconfig --enable-libfreetype --enable-libfribidi --enable-libgme --enable-libgsm --enable-libmp3lame --enable-libmysofa --enable-libopenjpeg --enable-libopenmpt --enable-libopus --enable-libpulse --enable-librubberband --enable-librsvg --enable-libshine --enable-libsnappy --enable-libsoxr --enable-libspeex --enable-libssh --enable-libtheora --enable-libtwolame --enable-libvorbis --enable-libvpx --enable-libwavpack --enable-libwebp --enable-libx265 --enable-libxml2 --enable-libxvid --enable-libzmq --enable-libzvbi --enable-omx --enable-openal --enable-opengl --enable-sdl2 --enable-libdc1394 --enable-libdrm --enable-libiec61883 --enable-chromaprint --enable-frei0r --enable-libopencv --enable-libx264 --enable-shared\n",
            "  libavutil      55. 78.100 / 55. 78.100\n",
            "  libavcodec     57.107.100 / 57.107.100\n",
            "  libavformat    57. 83.100 / 57. 83.100\n",
            "  libavdevice    57. 10.100 / 57. 10.100\n",
            "  libavfilter     6.107.100 /  6.107.100\n",
            "  libavresample   3.  7.  0 /  3.  7.  0\n",
            "  libswscale      4.  8.100 /  4.  8.100\n",
            "  libswresample   2.  9.100 /  2.  9.100\n",
            "  libpostproc    54.  7.100 / 54.  7.100\n",
            "Input #0, mov,mp4,m4a,3gp,3g2,mj2, from 'data/1979_train/1979_13.mov':\n",
            "  Metadata:\n",
            "    major_brand     : qt  \n",
            "    minor_version   : 512\n",
            "    compatible_brands: qt  \n",
            "    encoder         : Lavf58.60.100\n",
            "  Duration: 00:00:05.00, start: 0.000000, bitrate: 32544 kb/s\n",
            "    Stream #0:0: Video: ffvhuff (FFVH / 0x48564646), gray(progressive), 1152x768, 32542 kb/s, 16 fps, 16 tbr, 16384 tbn, 16384 tbc (default)\n",
            "    Metadata:\n",
            "      handler_name    : DataHandler\n",
            "      encoder         : Lavc58.108.100 ffvhuff\n",
            "Stream mapping:\n",
            "  Stream #0:0 -> #0:0 (ffvhuff (native) -> mjpeg (native))\n",
            "Press [q] to stop, [?] for help\n",
            "\u001b[1;34m[swscaler @ 0x55de9e68e000] \u001b[0m\u001b[0;33mdeprecated pixel format used, make sure you did set range correctly\n",
            "\u001b[0mOutput #0, image2, to 'data/train/extracted/1979_13/%04d.jpg':\n",
            "  Metadata:\n",
            "    major_brand     : qt  \n",
            "    minor_version   : 512\n",
            "    compatible_brands: qt  \n",
            "    encoder         : Lavf57.83.100\n",
            "    Stream #0:0: Video: mjpeg, yuvj444p(pc), 1152x768, q=2-31, 200 kb/s, 16 fps, 16 tbn, 16 tbc (default)\n",
            "    Metadata:\n",
            "      handler_name    : DataHandler\n",
            "      encoder         : Lavc57.107.100 mjpeg\n",
            "    Side data:\n",
            "      cpb: bitrate max/min/avg: 0/0/200000 buffer size: 0 vbv_delay: -1\n",
            "frame=   80 fps=0.0 q=2.0 Lsize=N/A time=00:00:05.00 bitrate=N/A speed=6.69x    \n",
            "video:3309kB audio:0kB subtitle:0kB other streams:0kB global headers:0kB muxing overhead: unknown\n",
            "ffmpeg version 3.4.8-0ubuntu0.2 Copyright (c) 2000-2020 the FFmpeg developers\n",
            "  built with gcc 7 (Ubuntu 7.5.0-3ubuntu1~18.04)\n",
            "  configuration: --prefix=/usr --extra-version=0ubuntu0.2 --toolchain=hardened --libdir=/usr/lib/x86_64-linux-gnu --incdir=/usr/include/x86_64-linux-gnu --enable-gpl --disable-stripping --enable-avresample --enable-avisynth --enable-gnutls --enable-ladspa --enable-libass --enable-libbluray --enable-libbs2b --enable-libcaca --enable-libcdio --enable-libflite --enable-libfontconfig --enable-libfreetype --enable-libfribidi --enable-libgme --enable-libgsm --enable-libmp3lame --enable-libmysofa --enable-libopenjpeg --enable-libopenmpt --enable-libopus --enable-libpulse --enable-librubberband --enable-librsvg --enable-libshine --enable-libsnappy --enable-libsoxr --enable-libspeex --enable-libssh --enable-libtheora --enable-libtwolame --enable-libvorbis --enable-libvpx --enable-libwavpack --enable-libwebp --enable-libx265 --enable-libxml2 --enable-libxvid --enable-libzmq --enable-libzvbi --enable-omx --enable-openal --enable-opengl --enable-sdl2 --enable-libdc1394 --enable-libdrm --enable-libiec61883 --enable-chromaprint --enable-frei0r --enable-libopencv --enable-libx264 --enable-shared\n",
            "  libavutil      55. 78.100 / 55. 78.100\n",
            "  libavcodec     57.107.100 / 57.107.100\n",
            "  libavformat    57. 83.100 / 57. 83.100\n",
            "  libavdevice    57. 10.100 / 57. 10.100\n",
            "  libavfilter     6.107.100 /  6.107.100\n",
            "  libavresample   3.  7.  0 /  3.  7.  0\n",
            "  libswscale      4.  8.100 /  4.  8.100\n",
            "  libswresample   2.  9.100 /  2.  9.100\n",
            "  libpostproc    54.  7.100 / 54.  7.100\n",
            "Input #0, mov,mp4,m4a,3gp,3g2,mj2, from 'data/1979_train/1979_9.mov':\n",
            "  Metadata:\n",
            "    major_brand     : qt  \n",
            "    minor_version   : 512\n",
            "    compatible_brands: qt  \n",
            "    encoder         : Lavf58.60.100\n",
            "  Duration: 00:00:05.00, start: 0.000000, bitrate: 33187 kb/s\n",
            "    Stream #0:0: Video: ffvhuff (FFVH / 0x48564646), gray(progressive), 1152x768, 33185 kb/s, 16 fps, 16 tbr, 16384 tbn, 16384 tbc (default)\n",
            "    Metadata:\n",
            "      handler_name    : DataHandler\n",
            "      encoder         : Lavc58.108.100 ffvhuff\n",
            "Stream mapping:\n",
            "  Stream #0:0 -> #0:0 (ffvhuff (native) -> mjpeg (native))\n",
            "Press [q] to stop, [?] for help\n",
            "\u001b[1;34m[swscaler @ 0x564d10e3c000] \u001b[0m\u001b[0;33mdeprecated pixel format used, make sure you did set range correctly\n",
            "\u001b[0mOutput #0, image2, to 'data/train/extracted/1979_9/%04d.jpg':\n",
            "  Metadata:\n",
            "    major_brand     : qt  \n",
            "    minor_version   : 512\n",
            "    compatible_brands: qt  \n",
            "    encoder         : Lavf57.83.100\n",
            "    Stream #0:0: Video: mjpeg, yuvj444p(pc), 1152x768, q=2-31, 200 kb/s, 16 fps, 16 tbn, 16 tbc (default)\n",
            "    Metadata:\n",
            "      handler_name    : DataHandler\n",
            "      encoder         : Lavc57.107.100 mjpeg\n",
            "    Side data:\n",
            "      cpb: bitrate max/min/avg: 0/0/200000 buffer size: 0 vbv_delay: -1\n",
            "frame=   80 fps=0.0 q=2.0 Lsize=N/A time=00:00:05.00 bitrate=N/A speed=6.67x    \n",
            "video:3518kB audio:0kB subtitle:0kB other streams:0kB global headers:0kB muxing overhead: unknown\n",
            "ffmpeg version 3.4.8-0ubuntu0.2 Copyright (c) 2000-2020 the FFmpeg developers\n",
            "  built with gcc 7 (Ubuntu 7.5.0-3ubuntu1~18.04)\n",
            "  configuration: --prefix=/usr --extra-version=0ubuntu0.2 --toolchain=hardened --libdir=/usr/lib/x86_64-linux-gnu --incdir=/usr/include/x86_64-linux-gnu --enable-gpl --disable-stripping --enable-avresample --enable-avisynth --enable-gnutls --enable-ladspa --enable-libass --enable-libbluray --enable-libbs2b --enable-libcaca --enable-libcdio --enable-libflite --enable-libfontconfig --enable-libfreetype --enable-libfribidi --enable-libgme --enable-libgsm --enable-libmp3lame --enable-libmysofa --enable-libopenjpeg --enable-libopenmpt --enable-libopus --enable-libpulse --enable-librubberband --enable-librsvg --enable-libshine --enable-libsnappy --enable-libsoxr --enable-libspeex --enable-libssh --enable-libtheora --enable-libtwolame --enable-libvorbis --enable-libvpx --enable-libwavpack --enable-libwebp --enable-libx265 --enable-libxml2 --enable-libxvid --enable-libzmq --enable-libzvbi --enable-omx --enable-openal --enable-opengl --enable-sdl2 --enable-libdc1394 --enable-libdrm --enable-libiec61883 --enable-chromaprint --enable-frei0r --enable-libopencv --enable-libx264 --enable-shared\n",
            "  libavutil      55. 78.100 / 55. 78.100\n",
            "  libavcodec     57.107.100 / 57.107.100\n",
            "  libavformat    57. 83.100 / 57. 83.100\n",
            "  libavdevice    57. 10.100 / 57. 10.100\n",
            "  libavfilter     6.107.100 /  6.107.100\n",
            "  libavresample   3.  7.  0 /  3.  7.  0\n",
            "  libswscale      4.  8.100 /  4.  8.100\n",
            "  libswresample   2.  9.100 /  2.  9.100\n",
            "  libpostproc    54.  7.100 / 54.  7.100\n",
            "Input #0, mov,mp4,m4a,3gp,3g2,mj2, from 'data/1979_train/1979_16.mov':\n",
            "  Metadata:\n",
            "    major_brand     : qt  \n",
            "    minor_version   : 512\n",
            "    compatible_brands: qt  \n",
            "    encoder         : Lavf58.60.100\n",
            "  Duration: 00:00:05.00, start: 0.000000, bitrate: 32767 kb/s\n",
            "    Stream #0:0: Video: ffvhuff (FFVH / 0x48564646), gray(progressive), 1152x768, 32766 kb/s, 16 fps, 16 tbr, 16384 tbn, 16384 tbc (default)\n",
            "    Metadata:\n",
            "      handler_name    : DataHandler\n",
            "      encoder         : Lavc58.108.100 ffvhuff\n",
            "Stream mapping:\n",
            "  Stream #0:0 -> #0:0 (ffvhuff (native) -> mjpeg (native))\n",
            "Press [q] to stop, [?] for help\n",
            "\u001b[1;34m[swscaler @ 0x555eb8f72000] \u001b[0m\u001b[0;33mdeprecated pixel format used, make sure you did set range correctly\n",
            "\u001b[0mOutput #0, image2, to 'data/train/extracted/1979_16/%04d.jpg':\n",
            "  Metadata:\n",
            "    major_brand     : qt  \n",
            "    minor_version   : 512\n",
            "    compatible_brands: qt  \n",
            "    encoder         : Lavf57.83.100\n",
            "    Stream #0:0: Video: mjpeg, yuvj444p(pc), 1152x768, q=2-31, 200 kb/s, 16 fps, 16 tbn, 16 tbc (default)\n",
            "    Metadata:\n",
            "      handler_name    : DataHandler\n",
            "      encoder         : Lavc57.107.100 mjpeg\n",
            "    Side data:\n",
            "      cpb: bitrate max/min/avg: 0/0/200000 buffer size: 0 vbv_delay: -1\n",
            "frame=   80 fps=0.0 q=2.0 Lsize=N/A time=00:00:05.00 bitrate=N/A speed=7.03x    \n",
            "video:3248kB audio:0kB subtitle:0kB other streams:0kB global headers:0kB muxing overhead: unknown\n",
            "ffmpeg version 3.4.8-0ubuntu0.2 Copyright (c) 2000-2020 the FFmpeg developers\n",
            "  built with gcc 7 (Ubuntu 7.5.0-3ubuntu1~18.04)\n",
            "  configuration: --prefix=/usr --extra-version=0ubuntu0.2 --toolchain=hardened --libdir=/usr/lib/x86_64-linux-gnu --incdir=/usr/include/x86_64-linux-gnu --enable-gpl --disable-stripping --enable-avresample --enable-avisynth --enable-gnutls --enable-ladspa --enable-libass --enable-libbluray --enable-libbs2b --enable-libcaca --enable-libcdio --enable-libflite --enable-libfontconfig --enable-libfreetype --enable-libfribidi --enable-libgme --enable-libgsm --enable-libmp3lame --enable-libmysofa --enable-libopenjpeg --enable-libopenmpt --enable-libopus --enable-libpulse --enable-librubberband --enable-librsvg --enable-libshine --enable-libsnappy --enable-libsoxr --enable-libspeex --enable-libssh --enable-libtheora --enable-libtwolame --enable-libvorbis --enable-libvpx --enable-libwavpack --enable-libwebp --enable-libx265 --enable-libxml2 --enable-libxvid --enable-libzmq --enable-libzvbi --enable-omx --enable-openal --enable-opengl --enable-sdl2 --enable-libdc1394 --enable-libdrm --enable-libiec61883 --enable-chromaprint --enable-frei0r --enable-libopencv --enable-libx264 --enable-shared\n",
            "  libavutil      55. 78.100 / 55. 78.100\n",
            "  libavcodec     57.107.100 / 57.107.100\n",
            "  libavformat    57. 83.100 / 57. 83.100\n",
            "  libavdevice    57. 10.100 / 57. 10.100\n",
            "  libavfilter     6.107.100 /  6.107.100\n",
            "  libavresample   3.  7.  0 /  3.  7.  0\n",
            "  libswscale      4.  8.100 /  4.  8.100\n",
            "  libswresample   2.  9.100 /  2.  9.100\n",
            "  libpostproc    54.  7.100 / 54.  7.100\n",
            "Input #0, mov,mp4,m4a,3gp,3g2,mj2, from 'data/1979_train/1979_18.mov':\n",
            "  Metadata:\n",
            "    major_brand     : qt  \n",
            "    minor_version   : 512\n",
            "    compatible_brands: qt  \n",
            "    encoder         : Lavf58.60.100\n",
            "  Duration: 00:00:04.38, start: 0.000000, bitrate: 32868 kb/s\n",
            "    Stream #0:0: Video: ffvhuff (FFVH / 0x48564646), gray(progressive), 1152x768, 32866 kb/s, 16 fps, 16 tbr, 16384 tbn, 16384 tbc (default)\n",
            "    Metadata:\n",
            "      handler_name    : DataHandler\n",
            "      encoder         : Lavc58.108.100 ffvhuff\n",
            "Stream mapping:\n",
            "  Stream #0:0 -> #0:0 (ffvhuff (native) -> mjpeg (native))\n",
            "Press [q] to stop, [?] for help\n",
            "\u001b[1;34m[swscaler @ 0x556e45f08000] \u001b[0m\u001b[0;33mdeprecated pixel format used, make sure you did set range correctly\n",
            "\u001b[0mOutput #0, image2, to 'data/train/extracted/1979_18/%04d.jpg':\n",
            "  Metadata:\n",
            "    major_brand     : qt  \n",
            "    minor_version   : 512\n",
            "    compatible_brands: qt  \n",
            "    encoder         : Lavf57.83.100\n",
            "    Stream #0:0: Video: mjpeg, yuvj444p(pc), 1152x768, q=2-31, 200 kb/s, 16 fps, 16 tbn, 16 tbc (default)\n",
            "    Metadata:\n",
            "      handler_name    : DataHandler\n",
            "      encoder         : Lavc57.107.100 mjpeg\n",
            "    Side data:\n",
            "      cpb: bitrate max/min/avg: 0/0/200000 buffer size: 0 vbv_delay: -1\n",
            "frame=   70 fps=0.0 q=2.0 Lsize=N/A time=00:00:04.37 bitrate=N/A speed=7.12x    \n",
            "video:2793kB audio:0kB subtitle:0kB other streams:0kB global headers:0kB muxing overhead: unknown\n",
            "ffmpeg version 3.4.8-0ubuntu0.2 Copyright (c) 2000-2020 the FFmpeg developers\n",
            "  built with gcc 7 (Ubuntu 7.5.0-3ubuntu1~18.04)\n",
            "  configuration: --prefix=/usr --extra-version=0ubuntu0.2 --toolchain=hardened --libdir=/usr/lib/x86_64-linux-gnu --incdir=/usr/include/x86_64-linux-gnu --enable-gpl --disable-stripping --enable-avresample --enable-avisynth --enable-gnutls --enable-ladspa --enable-libass --enable-libbluray --enable-libbs2b --enable-libcaca --enable-libcdio --enable-libflite --enable-libfontconfig --enable-libfreetype --enable-libfribidi --enable-libgme --enable-libgsm --enable-libmp3lame --enable-libmysofa --enable-libopenjpeg --enable-libopenmpt --enable-libopus --enable-libpulse --enable-librubberband --enable-librsvg --enable-libshine --enable-libsnappy --enable-libsoxr --enable-libspeex --enable-libssh --enable-libtheora --enable-libtwolame --enable-libvorbis --enable-libvpx --enable-libwavpack --enable-libwebp --enable-libx265 --enable-libxml2 --enable-libxvid --enable-libzmq --enable-libzvbi --enable-omx --enable-openal --enable-opengl --enable-sdl2 --enable-libdc1394 --enable-libdrm --enable-libiec61883 --enable-chromaprint --enable-frei0r --enable-libopencv --enable-libx264 --enable-shared\n",
            "  libavutil      55. 78.100 / 55. 78.100\n",
            "  libavcodec     57.107.100 / 57.107.100\n",
            "  libavformat    57. 83.100 / 57. 83.100\n",
            "  libavdevice    57. 10.100 / 57. 10.100\n",
            "  libavfilter     6.107.100 /  6.107.100\n",
            "  libavresample   3.  7.  0 /  3.  7.  0\n",
            "  libswscale      4.  8.100 /  4.  8.100\n",
            "  libswresample   2.  9.100 /  2.  9.100\n",
            "  libpostproc    54.  7.100 / 54.  7.100\n",
            "Input #0, mov,mp4,m4a,3gp,3g2,mj2, from 'data/1979_train/1979_11.mov':\n",
            "  Metadata:\n",
            "    major_brand     : qt  \n",
            "    minor_version   : 512\n",
            "    compatible_brands: qt  \n",
            "    encoder         : Lavf58.60.100\n",
            "  Duration: 00:00:05.00, start: 0.000000, bitrate: 33099 kb/s\n",
            "    Stream #0:0: Video: ffvhuff (FFVH / 0x48564646), gray(progressive), 1152x768, 33097 kb/s, 16 fps, 16 tbr, 16384 tbn, 16384 tbc (default)\n",
            "    Metadata:\n",
            "      handler_name    : DataHandler\n",
            "      encoder         : Lavc58.108.100 ffvhuff\n",
            "Stream mapping:\n",
            "  Stream #0:0 -> #0:0 (ffvhuff (native) -> mjpeg (native))\n",
            "Press [q] to stop, [?] for help\n",
            "\u001b[1;34m[swscaler @ 0x56408ac34000] \u001b[0m\u001b[0;33mdeprecated pixel format used, make sure you did set range correctly\n",
            "\u001b[0mOutput #0, image2, to 'data/train/extracted/1979_11/%04d.jpg':\n",
            "  Metadata:\n",
            "    major_brand     : qt  \n",
            "    minor_version   : 512\n",
            "    compatible_brands: qt  \n",
            "    encoder         : Lavf57.83.100\n",
            "    Stream #0:0: Video: mjpeg, yuvj444p(pc), 1152x768, q=2-31, 200 kb/s, 16 fps, 16 tbn, 16 tbc (default)\n",
            "    Metadata:\n",
            "      handler_name    : DataHandler\n",
            "      encoder         : Lavc57.107.100 mjpeg\n",
            "    Side data:\n",
            "      cpb: bitrate max/min/avg: 0/0/200000 buffer size: 0 vbv_delay: -1\n",
            "frame=   80 fps=0.0 q=2.0 Lsize=N/A time=00:00:05.00 bitrate=N/A speed=7.04x    \n",
            "video:3499kB audio:0kB subtitle:0kB other streams:0kB global headers:0kB muxing overhead: unknown\n",
            "ffmpeg version 3.4.8-0ubuntu0.2 Copyright (c) 2000-2020 the FFmpeg developers\n",
            "  built with gcc 7 (Ubuntu 7.5.0-3ubuntu1~18.04)\n",
            "  configuration: --prefix=/usr --extra-version=0ubuntu0.2 --toolchain=hardened --libdir=/usr/lib/x86_64-linux-gnu --incdir=/usr/include/x86_64-linux-gnu --enable-gpl --disable-stripping --enable-avresample --enable-avisynth --enable-gnutls --enable-ladspa --enable-libass --enable-libbluray --enable-libbs2b --enable-libcaca --enable-libcdio --enable-libflite --enable-libfontconfig --enable-libfreetype --enable-libfribidi --enable-libgme --enable-libgsm --enable-libmp3lame --enable-libmysofa --enable-libopenjpeg --enable-libopenmpt --enable-libopus --enable-libpulse --enable-librubberband --enable-librsvg --enable-libshine --enable-libsnappy --enable-libsoxr --enable-libspeex --enable-libssh --enable-libtheora --enable-libtwolame --enable-libvorbis --enable-libvpx --enable-libwavpack --enable-libwebp --enable-libx265 --enable-libxml2 --enable-libxvid --enable-libzmq --enable-libzvbi --enable-omx --enable-openal --enable-opengl --enable-sdl2 --enable-libdc1394 --enable-libdrm --enable-libiec61883 --enable-chromaprint --enable-frei0r --enable-libopencv --enable-libx264 --enable-shared\n",
            "  libavutil      55. 78.100 / 55. 78.100\n",
            "  libavcodec     57.107.100 / 57.107.100\n",
            "  libavformat    57. 83.100 / 57. 83.100\n",
            "  libavdevice    57. 10.100 / 57. 10.100\n",
            "  libavfilter     6.107.100 /  6.107.100\n",
            "  libavresample   3.  7.  0 /  3.  7.  0\n",
            "  libswscale      4.  8.100 /  4.  8.100\n",
            "  libswresample   2.  9.100 /  2.  9.100\n",
            "  libpostproc    54.  7.100 / 54.  7.100\n",
            "Input #0, mov,mp4,m4a,3gp,3g2,mj2, from 'data/1979_train/1979_8.mov':\n",
            "  Metadata:\n",
            "    major_brand     : qt  \n",
            "    minor_version   : 512\n",
            "    compatible_brands: qt  \n",
            "    encoder         : Lavf58.60.100\n",
            "  Duration: 00:00:05.00, start: 0.000000, bitrate: 33142 kb/s\n",
            "    Stream #0:0: Video: ffvhuff (FFVH / 0x48564646), gray(progressive), 1152x768, 33140 kb/s, 16 fps, 16 tbr, 16384 tbn, 16384 tbc (default)\n",
            "    Metadata:\n",
            "      handler_name    : DataHandler\n",
            "      encoder         : Lavc58.108.100 ffvhuff\n",
            "Stream mapping:\n",
            "  Stream #0:0 -> #0:0 (ffvhuff (native) -> mjpeg (native))\n",
            "Press [q] to stop, [?] for help\n",
            "\u001b[1;34m[swscaler @ 0x55ad7f176000] \u001b[0m\u001b[0;33mdeprecated pixel format used, make sure you did set range correctly\n",
            "\u001b[0mOutput #0, image2, to 'data/train/extracted/1979_8/%04d.jpg':\n",
            "  Metadata:\n",
            "    major_brand     : qt  \n",
            "    minor_version   : 512\n",
            "    compatible_brands: qt  \n",
            "    encoder         : Lavf57.83.100\n",
            "    Stream #0:0: Video: mjpeg, yuvj444p(pc), 1152x768, q=2-31, 200 kb/s, 16 fps, 16 tbn, 16 tbc (default)\n",
            "    Metadata:\n",
            "      handler_name    : DataHandler\n",
            "      encoder         : Lavc57.107.100 mjpeg\n",
            "    Side data:\n",
            "      cpb: bitrate max/min/avg: 0/0/200000 buffer size: 0 vbv_delay: -1\n",
            "frame=   80 fps=0.0 q=2.0 Lsize=N/A time=00:00:05.00 bitrate=N/A speed=7.01x    \n",
            "video:3530kB audio:0kB subtitle:0kB other streams:0kB global headers:0kB muxing overhead: unknown\n",
            "ffmpeg version 3.4.8-0ubuntu0.2 Copyright (c) 2000-2020 the FFmpeg developers\n",
            "  built with gcc 7 (Ubuntu 7.5.0-3ubuntu1~18.04)\n",
            "  configuration: --prefix=/usr --extra-version=0ubuntu0.2 --toolchain=hardened --libdir=/usr/lib/x86_64-linux-gnu --incdir=/usr/include/x86_64-linux-gnu --enable-gpl --disable-stripping --enable-avresample --enable-avisynth --enable-gnutls --enable-ladspa --enable-libass --enable-libbluray --enable-libbs2b --enable-libcaca --enable-libcdio --enable-libflite --enable-libfontconfig --enable-libfreetype --enable-libfribidi --enable-libgme --enable-libgsm --enable-libmp3lame --enable-libmysofa --enable-libopenjpeg --enable-libopenmpt --enable-libopus --enable-libpulse --enable-librubberband --enable-librsvg --enable-libshine --enable-libsnappy --enable-libsoxr --enable-libspeex --enable-libssh --enable-libtheora --enable-libtwolame --enable-libvorbis --enable-libvpx --enable-libwavpack --enable-libwebp --enable-libx265 --enable-libxml2 --enable-libxvid --enable-libzmq --enable-libzvbi --enable-omx --enable-openal --enable-opengl --enable-sdl2 --enable-libdc1394 --enable-libdrm --enable-libiec61883 --enable-chromaprint --enable-frei0r --enable-libopencv --enable-libx264 --enable-shared\n",
            "  libavutil      55. 78.100 / 55. 78.100\n",
            "  libavcodec     57.107.100 / 57.107.100\n",
            "  libavformat    57. 83.100 / 57. 83.100\n",
            "  libavdevice    57. 10.100 / 57. 10.100\n",
            "  libavfilter     6.107.100 /  6.107.100\n",
            "  libavresample   3.  7.  0 /  3.  7.  0\n",
            "  libswscale      4.  8.100 /  4.  8.100\n",
            "  libswresample   2.  9.100 /  2.  9.100\n",
            "  libpostproc    54.  7.100 / 54.  7.100\n",
            "Input #0, mov,mp4,m4a,3gp,3g2,mj2, from 'data/1979_train/1979_14.mov':\n",
            "  Metadata:\n",
            "    major_brand     : qt  \n",
            "    minor_version   : 512\n",
            "    compatible_brands: qt  \n",
            "    encoder         : Lavf58.60.100\n",
            "  Duration: 00:00:05.00, start: 0.000000, bitrate: 32694 kb/s\n",
            "    Stream #0:0: Video: ffvhuff (FFVH / 0x48564646), gray(progressive), 1152x768, 32692 kb/s, 16 fps, 16 tbr, 16384 tbn, 16384 tbc (default)\n",
            "    Metadata:\n",
            "      handler_name    : DataHandler\n",
            "      encoder         : Lavc58.108.100 ffvhuff\n",
            "Stream mapping:\n",
            "  Stream #0:0 -> #0:0 (ffvhuff (native) -> mjpeg (native))\n",
            "Press [q] to stop, [?] for help\n",
            "\u001b[1;34m[swscaler @ 0x55ee80e96000] \u001b[0m\u001b[0;33mdeprecated pixel format used, make sure you did set range correctly\n",
            "\u001b[0mOutput #0, image2, to 'data/train/extracted/1979_14/%04d.jpg':\n",
            "  Metadata:\n",
            "    major_brand     : qt  \n",
            "    minor_version   : 512\n",
            "    compatible_brands: qt  \n",
            "    encoder         : Lavf57.83.100\n",
            "    Stream #0:0: Video: mjpeg, yuvj444p(pc), 1152x768, q=2-31, 200 kb/s, 16 fps, 16 tbn, 16 tbc (default)\n",
            "    Metadata:\n",
            "      handler_name    : DataHandler\n",
            "      encoder         : Lavc57.107.100 mjpeg\n",
            "    Side data:\n",
            "      cpb: bitrate max/min/avg: 0/0/200000 buffer size: 0 vbv_delay: -1\n",
            "frame=   80 fps=0.0 q=2.0 Lsize=N/A time=00:00:05.00 bitrate=N/A speed=7.05x    \n",
            "video:3347kB audio:0kB subtitle:0kB other streams:0kB global headers:0kB muxing overhead: unknown\n",
            "ffmpeg version 3.4.8-0ubuntu0.2 Copyright (c) 2000-2020 the FFmpeg developers\n",
            "  built with gcc 7 (Ubuntu 7.5.0-3ubuntu1~18.04)\n",
            "  configuration: --prefix=/usr --extra-version=0ubuntu0.2 --toolchain=hardened --libdir=/usr/lib/x86_64-linux-gnu --incdir=/usr/include/x86_64-linux-gnu --enable-gpl --disable-stripping --enable-avresample --enable-avisynth --enable-gnutls --enable-ladspa --enable-libass --enable-libbluray --enable-libbs2b --enable-libcaca --enable-libcdio --enable-libflite --enable-libfontconfig --enable-libfreetype --enable-libfribidi --enable-libgme --enable-libgsm --enable-libmp3lame --enable-libmysofa --enable-libopenjpeg --enable-libopenmpt --enable-libopus --enable-libpulse --enable-librubberband --enable-librsvg --enable-libshine --enable-libsnappy --enable-libsoxr --enable-libspeex --enable-libssh --enable-libtheora --enable-libtwolame --enable-libvorbis --enable-libvpx --enable-libwavpack --enable-libwebp --enable-libx265 --enable-libxml2 --enable-libxvid --enable-libzmq --enable-libzvbi --enable-omx --enable-openal --enable-opengl --enable-sdl2 --enable-libdc1394 --enable-libdrm --enable-libiec61883 --enable-chromaprint --enable-frei0r --enable-libopencv --enable-libx264 --enable-shared\n",
            "  libavutil      55. 78.100 / 55. 78.100\n",
            "  libavcodec     57.107.100 / 57.107.100\n",
            "  libavformat    57. 83.100 / 57. 83.100\n",
            "  libavdevice    57. 10.100 / 57. 10.100\n",
            "  libavfilter     6.107.100 /  6.107.100\n",
            "  libavresample   3.  7.  0 /  3.  7.  0\n",
            "  libswscale      4.  8.100 /  4.  8.100\n",
            "  libswresample   2.  9.100 /  2.  9.100\n",
            "  libpostproc    54.  7.100 / 54.  7.100\n",
            "Input #0, mov,mp4,m4a,3gp,3g2,mj2, from 'data/1979_train/1979_12.mov':\n",
            "  Metadata:\n",
            "    major_brand     : qt  \n",
            "    minor_version   : 512\n",
            "    compatible_brands: qt  \n",
            "    encoder         : Lavf58.60.100\n",
            "  Duration: 00:00:05.00, start: 0.000000, bitrate: 32677 kb/s\n",
            "    Stream #0:0: Video: ffvhuff (FFVH / 0x48564646), gray(progressive), 1152x768, 32675 kb/s, 16 fps, 16 tbr, 16384 tbn, 16384 tbc (default)\n",
            "    Metadata:\n",
            "      handler_name    : DataHandler\n",
            "      encoder         : Lavc58.108.100 ffvhuff\n",
            "Stream mapping:\n",
            "  Stream #0:0 -> #0:0 (ffvhuff (native) -> mjpeg (native))\n",
            "Press [q] to stop, [?] for help\n",
            "\u001b[1;34m[swscaler @ 0x5593f46ba000] \u001b[0m\u001b[0;33mdeprecated pixel format used, make sure you did set range correctly\n",
            "\u001b[0mOutput #0, image2, to 'data/train/extracted/1979_12/%04d.jpg':\n",
            "  Metadata:\n",
            "    major_brand     : qt  \n",
            "    minor_version   : 512\n",
            "    compatible_brands: qt  \n",
            "    encoder         : Lavf57.83.100\n",
            "    Stream #0:0: Video: mjpeg, yuvj444p(pc), 1152x768, q=2-31, 200 kb/s, 16 fps, 16 tbn, 16 tbc (default)\n",
            "    Metadata:\n",
            "      handler_name    : DataHandler\n",
            "      encoder         : Lavc57.107.100 mjpeg\n",
            "    Side data:\n",
            "      cpb: bitrate max/min/avg: 0/0/200000 buffer size: 0 vbv_delay: -1\n",
            "frame=   80 fps=0.0 q=2.0 Lsize=N/A time=00:00:05.00 bitrate=N/A speed=7.17x    \n",
            "video:3327kB audio:0kB subtitle:0kB other streams:0kB global headers:0kB muxing overhead: unknown\n",
            "ffmpeg version 3.4.8-0ubuntu0.2 Copyright (c) 2000-2020 the FFmpeg developers\n",
            "  built with gcc 7 (Ubuntu 7.5.0-3ubuntu1~18.04)\n",
            "  configuration: --prefix=/usr --extra-version=0ubuntu0.2 --toolchain=hardened --libdir=/usr/lib/x86_64-linux-gnu --incdir=/usr/include/x86_64-linux-gnu --enable-gpl --disable-stripping --enable-avresample --enable-avisynth --enable-gnutls --enable-ladspa --enable-libass --enable-libbluray --enable-libbs2b --enable-libcaca --enable-libcdio --enable-libflite --enable-libfontconfig --enable-libfreetype --enable-libfribidi --enable-libgme --enable-libgsm --enable-libmp3lame --enable-libmysofa --enable-libopenjpeg --enable-libopenmpt --enable-libopus --enable-libpulse --enable-librubberband --enable-librsvg --enable-libshine --enable-libsnappy --enable-libsoxr --enable-libspeex --enable-libssh --enable-libtheora --enable-libtwolame --enable-libvorbis --enable-libvpx --enable-libwavpack --enable-libwebp --enable-libx265 --enable-libxml2 --enable-libxvid --enable-libzmq --enable-libzvbi --enable-omx --enable-openal --enable-opengl --enable-sdl2 --enable-libdc1394 --enable-libdrm --enable-libiec61883 --enable-chromaprint --enable-frei0r --enable-libopencv --enable-libx264 --enable-shared\n",
            "  libavutil      55. 78.100 / 55. 78.100\n",
            "  libavcodec     57.107.100 / 57.107.100\n",
            "  libavformat    57. 83.100 / 57. 83.100\n",
            "  libavdevice    57. 10.100 / 57. 10.100\n",
            "  libavfilter     6.107.100 /  6.107.100\n",
            "  libavresample   3.  7.  0 /  3.  7.  0\n",
            "  libswscale      4.  8.100 /  4.  8.100\n",
            "  libswresample   2.  9.100 /  2.  9.100\n",
            "  libpostproc    54.  7.100 / 54.  7.100\n",
            "Input #0, mov,mp4,m4a,3gp,3g2,mj2, from 'data/1979_train/1979_6.mov':\n",
            "  Metadata:\n",
            "    major_brand     : qt  \n",
            "    minor_version   : 512\n",
            "    compatible_brands: qt  \n",
            "    encoder         : Lavf58.60.100\n",
            "  Duration: 00:00:05.00, start: 0.000000, bitrate: 33677 kb/s\n",
            "    Stream #0:0: Video: ffvhuff (FFVH / 0x48564646), gray(progressive), 1152x768, 33675 kb/s, 16 fps, 16 tbr, 16384 tbn, 16384 tbc (default)\n",
            "    Metadata:\n",
            "      handler_name    : DataHandler\n",
            "      encoder         : Lavc58.108.100 ffvhuff\n",
            "Stream mapping:\n",
            "  Stream #0:0 -> #0:0 (ffvhuff (native) -> mjpeg (native))\n",
            "Press [q] to stop, [?] for help\n",
            "\u001b[1;34m[swscaler @ 0x55c12f394000] \u001b[0m\u001b[0;33mdeprecated pixel format used, make sure you did set range correctly\n",
            "\u001b[0mOutput #0, image2, to 'data/train/extracted/1979_6/%04d.jpg':\n",
            "  Metadata:\n",
            "    major_brand     : qt  \n",
            "    minor_version   : 512\n",
            "    compatible_brands: qt  \n",
            "    encoder         : Lavf57.83.100\n",
            "    Stream #0:0: Video: mjpeg, yuvj444p(pc), 1152x768, q=2-31, 200 kb/s, 16 fps, 16 tbn, 16 tbc (default)\n",
            "    Metadata:\n",
            "      handler_name    : DataHandler\n",
            "      encoder         : Lavc57.107.100 mjpeg\n",
            "    Side data:\n",
            "      cpb: bitrate max/min/avg: 0/0/200000 buffer size: 0 vbv_delay: -1\n",
            "frame=   80 fps=0.0 q=2.0 Lsize=N/A time=00:00:05.00 bitrate=N/A speed=6.68x    \n",
            "video:3644kB audio:0kB subtitle:0kB other streams:0kB global headers:0kB muxing overhead: unknown\n"
          ],
          "name": "stdout"
        }
      ]
    },
    {
      "cell_type": "code",
      "metadata": {
        "colab": {
          "base_uri": "https://localhost:8080/"
        },
        "id": "NxaFxNMo8Nk7",
        "outputId": "b01c1b05-2fbf-4e37-db57-5d2a68e4a704"
      },
      "source": [
        "!cd {project_name} && python train.py --dataset_root data/train --checkpoint_dir checkpoint\n"
      ],
      "execution_count": null,
      "outputs": [
        {
          "output_type": "stream",
          "text": [
            "Dataset SuperSloMo\n",
            "    Number of datapoints: 84\n",
            "    Root Location: data/train/train\n",
            "    Transforms (if any): Compose(\n",
            "                             ToTensor()\n",
            "                             Normalize(mean=[0.429, 0.431, 0.397], std=[1, 1, 1])\n",
            "                         )\n",
            " Dataset SuperSloMo\n",
            "    Number of datapoints: 1\n",
            "    Root Location: data/train/validation\n",
            "    Transforms (if any): Compose(\n",
            "                             ToTensor()\n",
            "                             Normalize(mean=[0.429, 0.431, 0.397], std=[1, 1, 1])\n",
            "                         )\n",
            "\n",
            "Downloading: \"https://download.pytorch.org/models/vgg16-397923af.pth\" to /root/.cache/torch/hub/checkpoints/vgg16-397923af.pth\n",
            "100% 528M/528M [00:07<00:00, 75.0MB/s]\n",
            "Epoch:  0\n",
            "/usr/local/lib/python3.6/dist-packages/torch/optim/lr_scheduler.py:136: UserWarning: Detected call of `lr_scheduler.step()` before `optimizer.step()`. In PyTorch 1.1.0 and later, you should call them in the opposite order: `optimizer.step()` before `lr_scheduler.step()`.  Failure to do this will result in PyTorch skipping the first value of the learning rate schedule. See more details at https://pytorch.org/docs/stable/optim.html#how-to-adjust-learning-rate\n",
            "  \"https://pytorch.org/docs/stable/optim.html#how-to-adjust-learning-rate\", UserWarning)\n",
            "/usr/local/lib/python3.6/dist-packages/torch/nn/functional.py:3063: UserWarning: Default upsampling behavior when mode=bilinear is changed to align_corners=False since 0.4.0. Please specify align_corners=True if the old behavior is desired. See the documentation of nn.Upsample for details.\n",
            "  \"See the documentation of nn.Upsample for details.\".format(mode))\n",
            "/usr/local/lib/python3.6/dist-packages/torch/nn/functional.py:3385: UserWarning: Default grid_sample and affine_grid behavior has changed to align_corners=False since 1.3.0. Please specify align_corners=True if the old behavior is desired. See the documentation of grid_sample for details.\n",
            "  warnings.warn(\"Default grid_sample and affine_grid behavior has changed \"\n",
            "/usr/local/lib/python3.6/dist-packages/torch/nn/functional.py:1639: UserWarning: nn.functional.sigmoid is deprecated. Use torch.sigmoid instead.\n",
            "  warnings.warn(\"nn.functional.sigmoid is deprecated. Use torch.sigmoid instead.\")\n",
            "Epoch:  1\n",
            "Epoch:  2\n",
            "Epoch:  3\n"
          ],
          "name": "stdout"
        }
      ]
    },
    {
      "cell_type": "code",
      "metadata": {
        "id": "K1QTlrP8Lm1b",
        "colab": {
          "base_uri": "https://localhost:8080/"
        },
        "outputId": "b7d0c87f-dc64-442e-fb74-02b63e27bad9"
      },
      "source": [
        "# !python video_to_slomo.py --ffmpeg path\\to\\folder\\containing\\ffmpeg --video path\\to\\video.mp4 --sf N --checkpoint path\\to\\checkpoint.ckpt --fps M --output path\\to\\output.mkv\n",
        "\n",
        "'''UPLOAD DESIRED VIDEO TO SUPERSLOMO AND RENAME AS video.mp4'''\n",
        "\n",
        "'''RUN SUPER SLOMO ON ../video.mp4'''\n",
        "SLOW_MOTION_FACTOR = 2\n",
        "TARGET_FPS = 60\n",
        "\n",
        "\n",
        "\n",
        "!cd {project_name} && python video_to_slomo.py --ffmpeg {ffmpeg_path} --checkpoint ../{pretrained_model} --video ../8fps_orig.mov --sf {2} --fps 16 --output ../output.mkv && ffmpeg -i ../output.mkv ../output.mp4"
      ],
      "execution_count": null,
      "outputs": [
        {
          "output_type": "stream",
          "text": [
            "/usr/bin/ffmpeg -i ../8fps_orig.mov -vf fps=8 -vsync 0 .tmpSuperSloMo/input/%06d.png\n",
            "ffmpeg version 3.4.8-0ubuntu0.2 Copyright (c) 2000-2020 the FFmpeg developers\n",
            "  built with gcc 7 (Ubuntu 7.5.0-3ubuntu1~18.04)\n",
            "  configuration: --prefix=/usr --extra-version=0ubuntu0.2 --toolchain=hardened --libdir=/usr/lib/x86_64-linux-gnu --incdir=/usr/include/x86_64-linux-gnu --enable-gpl --disable-stripping --enable-avresample --enable-avisynth --enable-gnutls --enable-ladspa --enable-libass --enable-libbluray --enable-libbs2b --enable-libcaca --enable-libcdio --enable-libflite --enable-libfontconfig --enable-libfreetype --enable-libfribidi --enable-libgme --enable-libgsm --enable-libmp3lame --enable-libmysofa --enable-libopenjpeg --enable-libopenmpt --enable-libopus --enable-libpulse --enable-librubberband --enable-librsvg --enable-libshine --enable-libsnappy --enable-libsoxr --enable-libspeex --enable-libssh --enable-libtheora --enable-libtwolame --enable-libvorbis --enable-libvpx --enable-libwavpack --enable-libwebp --enable-libx265 --enable-libxml2 --enable-libxvid --enable-libzmq --enable-libzvbi --enable-omx --enable-openal --enable-opengl --enable-sdl2 --enable-libdc1394 --enable-libdrm --enable-libiec61883 --enable-chromaprint --enable-frei0r --enable-libopencv --enable-libx264 --enable-shared\n",
            "  libavutil      55. 78.100 / 55. 78.100\n",
            "  libavcodec     57.107.100 / 57.107.100\n",
            "  libavformat    57. 83.100 / 57. 83.100\n",
            "  libavdevice    57. 10.100 / 57. 10.100\n",
            "  libavfilter     6.107.100 /  6.107.100\n",
            "  libavresample   3.  7.  0 /  3.  7.  0\n",
            "  libswscale      4.  8.100 /  4.  8.100\n",
            "  libswresample   2.  9.100 /  2.  9.100\n",
            "  libpostproc    54.  7.100 / 54.  7.100\n",
            "Input #0, mov,mp4,m4a,3gp,3g2,mj2, from '../8fps_orig.mov':\n",
            "  Metadata:\n",
            "    major_brand     : qt  \n",
            "    minor_version   : 512\n",
            "    compatible_brands: qt  \n",
            "    encoder         : Lavf58.60.100\n",
            "  Duration: 00:01:31.25, start: 0.000000, bitrate: 1045 kb/s\n",
            "    Stream #0:0: Video: h264 (High) (avc1 / 0x31637661), yuv420p, 1152x768, 1045 kb/s, 8 fps, 8 tbr, 16384 tbn, 16 tbc (default)\n",
            "    Metadata:\n",
            "      handler_name    : DataHandler\n",
            "      encoder         : Lavc58.108.100 libx264\n",
            "Stream mapping:\n",
            "  Stream #0:0 -> #0:0 (h264 (native) -> png (native))\n",
            "Press [q] to stop, [?] for help\n",
            "Output #0, image2, to '.tmpSuperSloMo/input/%06d.png':\n",
            "  Metadata:\n",
            "    major_brand     : qt  \n",
            "    minor_version   : 512\n",
            "    compatible_brands: qt  \n",
            "    encoder         : Lavf57.83.100\n",
            "    Stream #0:0: Video: png, rgb24, 1152x768, q=2-31, 200 kb/s, 8 fps, 8 tbn, 8 tbc (default)\n",
            "    Metadata:\n",
            "      handler_name    : DataHandler\n",
            "      encoder         : Lavc57.107.100 png\n",
            "frame=  730 fps= 15 q=-0.0 Lsize=N/A time=00:01:31.25 bitrate=N/A speed=1.88x    \n",
            "video:227807kB audio:0kB subtitle:0kB other streams:0kB global headers:0kB muxing overhead: unknown\n",
            "  0% 0/729 [00:00<?, ?it/s]/usr/local/lib/python3.6/dist-packages/torch/nn/functional.py:3063: UserWarning: Default upsampling behavior when mode=bilinear is changed to align_corners=False since 0.4.0. Please specify align_corners=True if the old behavior is desired. See the documentation of nn.Upsample for details.\n",
            "  \"See the documentation of nn.Upsample for details.\".format(mode))\n",
            "/usr/local/lib/python3.6/dist-packages/torch/nn/functional.py:3385: UserWarning: Default grid_sample and affine_grid behavior has changed to align_corners=False since 1.3.0. Please specify align_corners=True if the old behavior is desired. See the documentation of grid_sample for details.\n",
            "  warnings.warn(\"Default grid_sample and affine_grid behavior has changed \"\n",
            "100% 729/729 [4:09:23<00:00, 20.53s/it]\n",
            "/usr/bin/ffmpeg -r 16.0 -i .tmpSuperSloMo/output/%d.png -vcodec ffvhuff ../output.mkv\n",
            "ffmpeg version 3.4.8-0ubuntu0.2 Copyright (c) 2000-2020 the FFmpeg developers\n",
            "  built with gcc 7 (Ubuntu 7.5.0-3ubuntu1~18.04)\n",
            "  configuration: --prefix=/usr --extra-version=0ubuntu0.2 --toolchain=hardened --libdir=/usr/lib/x86_64-linux-gnu --incdir=/usr/include/x86_64-linux-gnu --enable-gpl --disable-stripping --enable-avresample --enable-avisynth --enable-gnutls --enable-ladspa --enable-libass --enable-libbluray --enable-libbs2b --enable-libcaca --enable-libcdio --enable-libflite --enable-libfontconfig --enable-libfreetype --enable-libfribidi --enable-libgme --enable-libgsm --enable-libmp3lame --enable-libmysofa --enable-libopenjpeg --enable-libopenmpt --enable-libopus --enable-libpulse --enable-librubberband --enable-librsvg --enable-libshine --enable-libsnappy --enable-libsoxr --enable-libspeex --enable-libssh --enable-libtheora --enable-libtwolame --enable-libvorbis --enable-libvpx --enable-libwavpack --enable-libwebp --enable-libx265 --enable-libxml2 --enable-libxvid --enable-libzmq --enable-libzvbi --enable-omx --enable-openal --enable-opengl --enable-sdl2 --enable-libdc1394 --enable-libdrm --enable-libiec61883 --enable-chromaprint --enable-frei0r --enable-libopencv --enable-libx264 --enable-shared\n",
            "  libavutil      55. 78.100 / 55. 78.100\n",
            "  libavcodec     57.107.100 / 57.107.100\n",
            "  libavformat    57. 83.100 / 57. 83.100\n",
            "  libavdevice    57. 10.100 / 57. 10.100\n",
            "  libavfilter     6.107.100 /  6.107.100\n",
            "  libavresample   3.  7.  0 /  3.  7.  0\n",
            "  libswscale      4.  8.100 /  4.  8.100\n",
            "  libswresample   2.  9.100 /  2.  9.100\n",
            "  libpostproc    54.  7.100 / 54.  7.100\n",
            "Input #0, image2, from '.tmpSuperSloMo/output/%d.png':\n",
            "  Duration: 00:00:58.32, start: 0.000000, bitrate: N/A\n",
            "    Stream #0:0: Video: png, rgb24(pc), 1152x768, 25 fps, 25 tbr, 25 tbn, 25 tbc\n",
            "Stream mapping:\n",
            "  Stream #0:0 -> #0:0 (png (native) -> ffvhuff (native))\n",
            "Press [q] to stop, [?] for help\n",
            "Output #0, matroska, to '../output.mkv':\n",
            "  Metadata:\n",
            "    encoder         : Lavf57.83.100\n",
            "    Stream #0:0: Video: ffvhuff (FFVH / 0x48564646), rgb24, 1152x768, q=2-31, 200 kb/s, 16 fps, 1k tbn, 16 tbc\n",
            "    Metadata:\n",
            "      encoder         : Lavc57.107.100 ffvhuff\n",
            "frame= 1458 fps= 59 q=-0.0 Lsize= 1005010kB time=00:01:31.06 bitrate=90409.4kbits/s speed=3.69x    \n",
            "video:1004938kB audio:0kB subtitle:0kB other streams:0kB global headers:0kB muxing overhead: 0.007243%\n",
            "ffmpeg version 3.4.8-0ubuntu0.2 Copyright (c) 2000-2020 the FFmpeg developers\n",
            "  built with gcc 7 (Ubuntu 7.5.0-3ubuntu1~18.04)\n",
            "  configuration: --prefix=/usr --extra-version=0ubuntu0.2 --toolchain=hardened --libdir=/usr/lib/x86_64-linux-gnu --incdir=/usr/include/x86_64-linux-gnu --enable-gpl --disable-stripping --enable-avresample --enable-avisynth --enable-gnutls --enable-ladspa --enable-libass --enable-libbluray --enable-libbs2b --enable-libcaca --enable-libcdio --enable-libflite --enable-libfontconfig --enable-libfreetype --enable-libfribidi --enable-libgme --enable-libgsm --enable-libmp3lame --enable-libmysofa --enable-libopenjpeg --enable-libopenmpt --enable-libopus --enable-libpulse --enable-librubberband --enable-librsvg --enable-libshine --enable-libsnappy --enable-libsoxr --enable-libspeex --enable-libssh --enable-libtheora --enable-libtwolame --enable-libvorbis --enable-libvpx --enable-libwavpack --enable-libwebp --enable-libx265 --enable-libxml2 --enable-libxvid --enable-libzmq --enable-libzvbi --enable-omx --enable-openal --enable-opengl --enable-sdl2 --enable-libdc1394 --enable-libdrm --enable-libiec61883 --enable-chromaprint --enable-frei0r --enable-libopencv --enable-libx264 --enable-shared\n",
            "  libavutil      55. 78.100 / 55. 78.100\n",
            "  libavcodec     57.107.100 / 57.107.100\n",
            "  libavformat    57. 83.100 / 57. 83.100\n",
            "  libavdevice    57. 10.100 / 57. 10.100\n",
            "  libavfilter     6.107.100 /  6.107.100\n",
            "  libavresample   3.  7.  0 /  3.  7.  0\n",
            "  libswscale      4.  8.100 /  4.  8.100\n",
            "  libswresample   2.  9.100 /  2.  9.100\n",
            "  libpostproc    54.  7.100 / 54.  7.100\n",
            "Input #0, matroska,webm, from '../output.mkv':\n",
            "  Metadata:\n",
            "    ENCODER         : Lavf57.83.100\n",
            "  Duration: 00:01:31.13, start: 0.000000, bitrate: 90347 kb/s\n",
            "    Stream #0:0: Video: ffvhuff (FFVH / 0x48564646), bgr0(progressive), 1152x768, 16 fps, 16 tbr, 1k tbn, 1k tbc (default)\n",
            "    Metadata:\n",
            "      ENCODER         : Lavc57.107.100 ffvhuff\n",
            "      DURATION        : 00:01:31.126000000\n",
            "Stream mapping:\n",
            "  Stream #0:0 -> #0:0 (ffvhuff (native) -> h264 (libx264))\n",
            "Press [q] to stop, [?] for help\n",
            "\u001b[1;36m[libx264 @ 0x55a798cd9900] \u001b[0musing cpu capabilities: MMX2 SSE2Fast SSSE3 SSE4.2 AVX FMA3 BMI2 AVX2\n",
            "\u001b[1;36m[libx264 @ 0x55a798cd9900] \u001b[0mprofile High 4:4:4 Predictive, level 3.1, 4:4:4 8-bit\n",
            "\u001b[1;36m[libx264 @ 0x55a798cd9900] \u001b[0m264 - core 152 r2854 e9a5903 - H.264/MPEG-4 AVC codec - Copyleft 2003-2017 - http://www.videolan.org/x264.html - options: cabac=1 ref=3 deblock=1:0:0 analyse=0x1:0x111 me=hex subme=7 psy=1 psy_rd=1.00:0.00 mixed_ref=1 me_range=16 chroma_me=1 trellis=1 8x8dct=0 cqm=0 deadzone=21,11 fast_pskip=1 chroma_qp_offset=4 threads=3 lookahead_threads=1 sliced_threads=0 nr=0 decimate=1 interlaced=0 bluray_compat=0 constrained_intra=0 bframes=3 b_pyramid=2 b_adapt=1 b_bias=0 direct=1 weightb=1 open_gop=0 weightp=2 keyint=250 keyint_min=16 scenecut=40 intra_refresh=0 rc_lookahead=40 rc=crf mbtree=1 crf=23.0 qcomp=0.60 qpmin=0 qpmax=69 qpstep=4 ip_ratio=1.40 aq=1:1.00\n",
            "Output #0, mp4, to '../output.mp4':\n",
            "  Metadata:\n",
            "    encoder         : Lavf57.83.100\n",
            "    Stream #0:0: Video: h264 (libx264) (avc1 / 0x31637661), yuv444p, 1152x768, q=-1--1, 16 fps, 16384 tbn, 16 tbc (default)\n",
            "    Metadata:\n",
            "      DURATION        : 00:01:31.126000000\n",
            "      encoder         : Lavc57.107.100 libx264\n",
            "    Side data:\n",
            "      cpb: bitrate max/min/avg: 0/0/0 buffer size: 0 vbv_delay: -1\n",
            "frame= 1458 fps= 12 q=-1.0 Lsize=   16172kB time=00:01:30.93 bitrate=1456.8kbits/s speed=0.734x    \n",
            "video:16155kB audio:0kB subtitle:0kB other streams:0kB global headers:0kB muxing overhead: 0.104788%\n",
            "\u001b[1;36m[libx264 @ 0x55a798cd9900] \u001b[0mframe I:88    Avg QP:19.77  size: 18535\n",
            "\u001b[1;36m[libx264 @ 0x55a798cd9900] \u001b[0mframe P:481   Avg QP:22.67  size: 13040\n",
            "\u001b[1;36m[libx264 @ 0x55a798cd9900] \u001b[0mframe B:889   Avg QP:22.96  size:  9717\n",
            "\u001b[1;36m[libx264 @ 0x55a798cd9900] \u001b[0mconsecutive B-frames: 16.0%  5.5%  8.0% 70.5%\n",
            "\u001b[1;36m[libx264 @ 0x55a798cd9900] \u001b[0mmb I  I16..4: 56.6%  0.0% 43.4%\n",
            "\u001b[1;36m[libx264 @ 0x55a798cd9900] \u001b[0mmb P  I16..4: 36.6%  0.0% 11.5%  P16..4: 35.0% 10.5%  1.9%  0.0%  0.0%    skip: 4.5%\n",
            "\u001b[1;36m[libx264 @ 0x55a798cd9900] \u001b[0mmb B  I16..4:  9.8%  0.0%  2.7%  B16..8: 43.2% 11.6%  0.9%  direct: 7.3%  skip:24.5%  L0:49.0% L1:46.3% BI: 4.7%\n",
            "\u001b[1;36m[libx264 @ 0x55a798cd9900] \u001b[0mcoded y,u,v intra: 20.4% 0.0% 0.0% inter: 16.8% 0.0% 0.0%\n",
            "\u001b[1;36m[libx264 @ 0x55a798cd9900] \u001b[0mi16 v,h,dc,p: 11% 34%  6% 49%\n",
            "\u001b[1;36m[libx264 @ 0x55a798cd9900] \u001b[0mi4 v,h,dc,ddl,ddr,vr,hd,vl,hu: 18% 32% 23%  5%  6%  4%  7%  3%  3%\n",
            "\u001b[1;36m[libx264 @ 0x55a798cd9900] \u001b[0mWeighted P-Frames: Y:60.3% UV:12.5%\n",
            "\u001b[1;36m[libx264 @ 0x55a798cd9900] \u001b[0mref P L0: 60.7%  5.2% 18.7% 10.3%  5.0%\n",
            "\u001b[1;36m[libx264 @ 0x55a798cd9900] \u001b[0mref B L0: 85.4% 11.1%  3.4%\n",
            "\u001b[1;36m[libx264 @ 0x55a798cd9900] \u001b[0mref B L1: 95.7%  4.3%\n",
            "\u001b[1;36m[libx264 @ 0x55a798cd9900] \u001b[0mkb/s:1452.27\n"
          ],
          "name": "stdout"
        }
      ]
    },
    {
      "cell_type": "code",
      "metadata": {
        "id": "1bRLqs165vf6"
      },
      "source": [
        ""
      ],
      "execution_count": null,
      "outputs": []
    }
  ]
}